<svg xmlns="http://www.w3.org/2000/svg" width="128" height="125" viewBox="0 0 128 125" fill="none">
  <path d="M 64 0 C 28.64 0 0 28.676 0 64.081 C 0 92.437 18.32 116.387 43.76 124.878 C 46.96 125.438 48.16 123.516 48.16 121.834 C 48.16 120.312 48.08 115.266 48.08 109.899 C 32 112.863 27.84 105.974 26.56 102.369 C 25.84 100.527 22.72 94.84 20 93.318 C 17.76 92.116 14.56 89.153 19.92 89.073 C 24.96 88.992 28.56 93.718 29.76 95.641 C 35.52 105.333 44.72 102.61 48.4 100.927 C 48.96 96.762 50.64 93.959 52.48 92.357 C 38.24 90.755 23.36 85.228 23.36 60.717 C 23.36 53.748 25.84 47.981 29.92 43.495 C 29.28 41.893 27.04 35.325 30.56 26.514 C 30.56 26.514 35.92 24.831 48.16 33.082 C 53.28 31.64 58.72 30.919 64.16 30.919 C 69.6 30.919 75.04 31.64 80.16 33.082 C 92.4 24.751 97.76 26.514 97.76 26.514 C 101.28 35.325 99.04 41.893 98.4 43.495 C 102.48 47.981 104.96 53.668 104.96 60.717 C 104.96 85.308 90 90.755 75.76 92.357 C 78.08 94.359 80.08 98.204 80.08 104.212 C 80.08 112.782 80 119.671 80 121.834 C 80 123.516 81.2 125.519 84.4 124.878 C 97.107 120.586 108.149 112.411 115.971 101.504 C 123.793 90.598 128 77.508 128 64.081 C 128 28.676 99.36 0 64 0 Z" fill="currentColor" fill-rule="nonzero"></path>
</svg>