<svg width="201" height="196" viewBox="0 0 201 196" fill="none" xmlns="http://www.w3.org/2000/svg">
<path d="M100.5 0C44.9737 0 0 44.9642 0 100.479C0 144.941 28.7681 182.495 68.7169 195.808C73.7419 196.687 75.6262 193.673 75.6262 191.035C75.6262 188.649 75.5006 180.736 75.5006 172.321C50.25 176.968 43.7175 166.167 41.7075 160.515C40.5769 157.626 35.6775 148.709 31.4062 146.322C27.8887 144.438 22.8638 139.791 31.2806 139.666C39.195 139.54 44.8481 146.95 46.7325 149.965C55.7775 165.162 70.2244 160.892 76.0031 158.254C76.8825 151.723 79.5206 147.327 82.41 144.815C60.0487 142.303 36.6825 133.637 36.6825 95.2037C36.6825 84.2766 40.5769 75.2335 46.9837 68.2C45.9787 65.688 42.4612 55.3889 47.9887 41.5731C47.9887 41.5731 56.4056 38.9355 75.6262 51.8722C83.6662 49.6114 92.2088 48.481 100.751 48.481C109.294 48.481 117.836 49.6114 125.876 51.8722C145.097 38.8099 153.514 41.5731 153.514 41.5731C159.041 55.3889 155.524 65.688 154.519 68.2C160.926 75.2335 164.82 84.151 164.82 95.2037C164.82 133.762 141.328 142.303 118.967 144.815C122.61 147.955 125.751 153.984 125.751 163.404C125.751 176.843 125.625 187.644 125.625 191.035C125.625 193.673 127.509 196.813 132.534 195.808C152.489 189.079 169.828 176.261 182.111 159.159C194.394 142.057 201 121.533 201 100.479C201 44.9642 156.026 0 100.5 0Z" fill="#F7F4F4"/>
</svg>
