<svg xmlns="http://www.w3.org/2000/svg" width="125" height="125" viewBox="0 0 125 125" fill="none">
  <path d="M 0 8.953 C 0 4.008 4.109 0 9.18 0 L 115.82 0 C 120.891 0 125 4.008 125 8.953 L 125 116.047 C 125 120.992 120.891 125 115.82 125 L 9.18 125 C 4.109 125 0 120.992 0 116.047 L 0 8.953 Z M 38.617 104.641 L 38.617 48.195 L 19.859 48.195 L 19.859 104.641 L 38.617 104.641 Z M 29.242 40.484 C 35.781 40.484 39.852 36.156 39.852 30.734 C 39.734 25.195 35.789 20.984 29.367 20.984 C 22.945 20.984 18.75 25.203 18.75 30.734 C 18.75 36.156 22.82 40.484 29.117 40.484 L 29.242 40.484 Z M 67.586 104.641 L 67.586 73.117 C 67.586 71.43 67.711 69.742 68.211 68.539 C 69.563 65.172 72.648 61.68 77.836 61.68 C 84.625 61.68 87.336 66.852 87.336 74.445 L 87.336 104.641 L 106.094 104.641 L 106.094 72.266 C 106.094 54.922 96.844 46.859 84.5 46.859 C 74.547 46.859 70.086 52.328 67.586 56.18 L 67.586 56.375 L 67.461 56.375 L 67.586 56.18 L 67.586 48.195 L 48.836 48.195 C 49.07 53.492 48.836 104.641 48.836 104.641 L 67.586 104.641 Z" fill="currentColor" fill-rule="nonzero"></path>
</svg>