<svg width="196" height="196" viewBox="0 0 196 196" fill="none" xmlns="http://www.w3.org/2000/svg">
<path d="M0 14.0385C0 6.28425 6.4435 0 14.3937 0H181.606C189.557 0 196 6.28425 196 14.0385V181.962C196 189.716 189.557 196 181.606 196H14.3937C6.4435 196 0 189.716 0 181.962V14.0385ZM60.5517 164.077V75.5703H31.1395V164.077H60.5517ZM45.8517 63.4795C56.105 63.4795 62.4872 56.693 62.4872 48.1915C62.3035 39.5063 56.1173 32.9035 46.0478 32.9035C35.9783 32.9035 29.4 39.5185 29.4 48.1915C29.4 56.693 35.7822 63.4795 45.6558 63.4795H45.8517ZM105.975 164.077V114.648C105.975 112.002 106.171 109.356 106.955 107.469C109.074 102.189 113.913 96.7138 122.047 96.7138C132.692 96.7138 136.943 104.823 136.943 116.73V164.077H166.355V113.312C166.355 86.1175 151.851 73.4755 132.496 73.4755C116.89 73.4755 109.895 82.0505 105.975 88.0898V88.396H105.779L105.975 88.0898V75.5703H76.5748C76.9423 83.8757 76.5748 164.077 76.5748 164.077H105.975Z" fill="#0A66C2"/>
</svg>
