<svg width="200" height="200" viewBox="0 0 200 200" fill="none" xmlns="http://www.w3.org/2000/svg">
<path d="M164 0C183.882 0 200 16.1177 200 36V164C200 183.882 183.882 200 164 200H36C16.1177 200 0 183.882 0 164V36C0 16.1177 16.1177 0 36 0H164ZM54.5 122C40.969 122 30 132.969 30 146.5C30 160.031 40.969 171 54.5 171C68.031 171 79 160.031 79 146.5C79 132.969 68.031 122 54.5 122ZM54 81C47.9249 81 43 85.9249 43 92C43 98.0751 47.9249 103 54 103C70.6377 103 81.0955 107.152 87.4717 113.528C93.8479 119.905 98 130.362 98 147C98 153.075 102.925 158 109 158C115.075 158 120 153.075 120 147C120 126.971 114.985 109.929 103.028 97.9717C91.0712 86.0145 74.0289 81 54 81ZM54 37C47.9249 37 43 41.9249 43 48C43 54.0751 47.9249 59 54 59C85.3044 59 106.762 66.8188 120.472 80.5283C134.181 94.2378 142 115.696 142 147C142 153.075 146.925 158 153 158C159.075 158 164 153.075 164 147C164 112.304 155.319 84.2622 136.028 64.9717C116.738 45.6812 88.6956 37 54 37Z" fill="#F26522"/>
</svg>
